<?xml version="1.0" encoding="UTF-8" standalone="no"?>
<!-- Created with Inkscape (http://www.inkscape.org/) -->

<svg
   xmlns:dc="http://purl.org/dc/elements/1.1/"
   xmlns:cc="http://creativecommons.org/ns#"
   xmlns:rdf="http://www.w3.org/1999/02/22-rdf-syntax-ns#"
   xmlns:svg="http://www.w3.org/2000/svg"
   xmlns="http://www.w3.org/2000/svg"
   xmlns:inkscape="http://www.inkscape.org/namespaces/inkscape"
   version="1.2"
   width="185"
   height="143"
   id="svg3966">
  <defs
     id="defs3968">
    <inkscape:path-effect
       effect="spiro"
       id="path-effect3911" />
    <inkscape:path-effect
       effect="spiro"
       id="path-effect3907" />
    <inkscape:path-effect
       effect="spiro"
       id="path-effect3903" />
    <inkscape:path-effect
       effect="spiro"
       id="path-effect3833-8" />
    <inkscape:path-effect
       effect="spiro"
       id="path-effect3833-15" />
    <inkscape:path-effect
       effect="spiro"
       id="path-effect3833-5" />
    <inkscape:path-effect
       effect="spiro"
       id="path-effect3833-6" />
    <inkscape:path-effect
       effect="spiro"
       id="path-effect3833-1" />
    <inkscape:path-effect
       effect="spiro"
       id="path-effect3833" />
    <inkscape:path-effect
       effect="spiro"
       id="path-effect2999" />
    <inkscape:path-effect
       effect="spiro"
       id="path-effect2995" />
  </defs>
  <metadata
     id="metadata3971">
    <rdf:RDF>
      <cc:Work
         rdf:about="">
        <dc:format>image/svg+xml</dc:format>
        <dc:type
           rdf:resource="http://purl.org/dc/dcmitype/StillImage" />
        <dc:title></dc:title>
      </cc:Work>
    </rdf:RDF>
  </metadata>
  <g
     transform="translate(0,-909.36218)"
     id="layer1">
    <path
       d="m 21.553431,910.36946 0,119.56834"
       id="path2993"
       style="fill:none;stroke:#000000;stroke-width:0.62960994px;stroke-linecap:butt;stroke-linejoin:miter;stroke-opacity:1" />
    <path
       d="m 183.21253,1029.7473 -161.693779,0"
       id="path2997"
       style="fill:none;stroke:#000000;stroke-width:0.93063182px;stroke-linecap:butt;stroke-linejoin:miter;stroke-opacity:1" />
    <g
       id="text3009"
       style="font-size:16px;font-style:normal;font-variant:normal;font-weight:normal;font-stretch:normal;text-align:start;line-height:125%;letter-spacing:0px;word-spacing:0px;writing-mode:lr-tb;text-anchor:start;fill:#000000;fill-opacity:1;stroke:none;font-family:Georgia;-inkscape-font-specification:Georgia">
      <path
         d="m 48.076817,1044.4202 -5.265625,0 0,-0.5547 c 0.156248,-0.01 0.398436,-0.031 0.726562,-0.062 0.333331,-0.037 0.562498,-0.073 0.6875,-0.1094 0.161456,-0.052 0.283851,-0.1354 0.367188,-0.25 0.08854,-0.1198 0.132809,-0.2969 0.132812,-0.5312 l 0,-5.4844 -1.945312,0 0,-0.6563 0.429687,0 c 0.562498,0 1.065102,-0.1041 1.507813,-0.3125 0.447913,-0.2083 0.768225,-0.4323 0.960937,-0.6718 l 0.648438,0 c -0.01563,0.3385 -0.03126,0.7343 -0.04687,1.1875 -0.01563,0.4531 -0.02344,0.8593 -0.02344,1.2187 l 0,4.6328 c -4e-6,0.1823 0.03906,0.3464 0.117188,0.4922 0.08333,0.1406 0.200516,0.2448 0.351562,0.3125 0.135412,0.057 0.356766,0.1094 0.664063,0.1563 0.307285,0.047 0.536452,0.073 0.6875,0.078 l 0,0.5547"
         id="path4180" />
    </g>
    <g
       transform="translate(-89.058269,731.99473)"
       id="flowRoot3013"
       style="font-size:16px;font-style:normal;font-variant:normal;font-weight:normal;font-stretch:normal;text-align:start;line-height:125%;letter-spacing:0px;word-spacing:0px;writing-mode:lr-tb;text-anchor:start;fill:#000000;fill-opacity:1;stroke:none;font-family:Georgia;-inkscape-font-specification:Georgia">
      <path
         d="m 160.71094,312.9222 -7.32032,0 0,-1.0625 c 0.14063,-0.16145 0.33594,-0.34114 0.58594,-0.53906 0.25,-0.20312 0.54688,-0.42187 0.89063,-0.65625 0.20833,-0.14062 0.45833,-0.29427 0.75,-0.46094 0.29166,-0.16666 0.62239,-0.34895 0.99218,-0.54687 0.41146,-0.21875 0.72656,-0.41146 0.94532,-0.57813 0.22395,-0.16666 0.42708,-0.37239 0.60937,-0.61718 0.11979,-0.16146 0.21614,-0.36198 0.28906,-0.60157 0.0729,-0.24478 0.10937,-0.59114 0.10938,-1.03906 -1e-5,-0.65103 -0.17449,-1.1276 -0.52344,-1.42969 -0.34896,-0.30728 -0.79688,-0.46093 -1.34375,-0.46093 -0.33854,0 -0.65886,0.0677 -0.96094,0.20312 -0.30208,0.13022 -0.52864,0.31251 -0.67968,0.54688 0.0365,0.16667 0.0807,0.36459 0.13281,0.59375 0.0573,0.22917 0.0859,0.45313 0.0859,0.67187 -1e-5,0.19792 -0.0833,0.37501 -0.25,0.53125 -0.16146,0.15105 -0.40365,0.22657 -0.72657,0.22656 -0.26041,1e-5 -0.46093,-0.0885 -0.60156,-0.26562 -0.14062,-0.18229 -0.21094,-0.42447 -0.21094,-0.72656 0,-0.28125 0.0781,-0.5625 0.23438,-0.84375 0.15625,-0.28645 0.38021,-0.54948 0.67187,-0.78907 0.28646,-0.23436 0.64063,-0.42447 1.0625,-0.57031 0.42188,-0.14582 0.87761,-0.21874 1.36719,-0.21875 1.06771,10e-6 1.91406,0.23959 2.53906,0.71875 0.63021,0.47397 0.94531,1.10938 0.94532,1.90625 -1e-5,0.38022 -0.0573,0.72657 -0.17188,1.03906 -0.10938,0.31251 -0.28907,0.58855 -0.53906,0.82813 -0.27605,0.26563 -0.59896,0.49479 -0.96875,0.6875 -0.3698,0.1875 -0.9349,0.45052 -1.69531,0.78906 -0.45313,0.20313 -0.87501,0.41667 -1.26563,0.64063 -0.39063,0.21875 -0.71094,0.43229 -0.96094,0.64062 l 6.00782,0 0,1.38281"
         id="path4177" />
    </g>
    <g
       id="text3021"
       style="font-size:16px;font-style:normal;font-variant:normal;font-weight:normal;font-stretch:normal;text-align:start;line-height:125%;letter-spacing:0px;word-spacing:0px;writing-mode:lr-tb;text-anchor:start;fill:#000000;fill-opacity:1;stroke:none;font-family:Georgia;-inkscape-font-specification:Georgia">
      <path
         d="m 88.492645,1046.7667 c -0.489586,0 -0.937503,-0.062 -1.34375,-0.1875 -0.406252,-0.1198 -0.75521,-0.2838 -1.046875,-0.4922 -0.291668,-0.2083 -0.51823,-0.4479 -0.679687,-0.7187 -0.156251,-0.2708 -0.234376,-0.5495 -0.234375,-0.836 -10e-7,-0.2552 0.0625,-0.4843 0.1875,-0.6875 0.124999,-0.2083 0.32552,-0.3125 0.601562,-0.3125 0.312499,0 0.549478,0.078 0.710938,0.2344 0.166664,0.1511 0.249998,0.3255 0.25,0.5235 -2e-6,0.1666 -0.02865,0.3776 -0.08594,0.6328 -0.05208,0.2552 -0.09375,0.4375 -0.125,0.5468 0.03646,0.047 0.101561,0.1094 0.195313,0.1875 0.09896,0.078 0.218747,0.1485 0.359375,0.211 0.166664,0.078 0.341143,0.1406 0.523437,0.1875 0.182289,0.047 0.440101,0.07 0.773438,0.07 0.312496,0 0.611974,-0.052 0.898437,-0.1563 0.291662,-0.1041 0.54687,-0.2708 0.765625,-0.5 0.229161,-0.2395 0.406244,-0.5208 0.53125,-0.8437 0.130202,-0.3177 0.195306,-0.737 0.195313,-1.2578 -7e-6,-0.2813 -0.03126,-0.5599 -0.09375,-0.836 -0.0573,-0.276 -0.166673,-0.5156 -0.328125,-0.7187 -0.161464,-0.2031 -0.382818,-0.3594 -0.664063,-0.4688 -0.276046,-0.1145 -0.627608,-0.1718 -1.054687,-0.1718 l -1.023438,0 0,-0.8985 0.679688,0 c 0.718745,0 1.236974,-0.1979 1.554687,-0.5937 0.317703,-0.3958 0.476557,-0.9922 0.476563,-1.7891 -6e-6,-0.651 -0.153652,-1.1406 -0.460938,-1.4687 -0.307296,-0.3334 -0.742192,-0.5 -1.304687,-0.5 -0.270837,0 -0.494795,0.034 -0.671875,0.1015 -0.171878,0.062 -0.312503,0.125 -0.421875,0.1875 -0.130211,0.073 -0.236982,0.1537 -0.320313,0.2422 -0.08334,0.089 -0.145836,0.1537 -0.1875,0.1953 0.03646,0.1667 0.08073,0.3724 0.132813,0.6172 0.05208,0.2396 0.07812,0.4688 0.07813,0.6875 -3e-6,0.1927 -0.08334,0.3672 -0.25,0.5235 -0.161461,0.151 -0.401044,0.2265 -0.71875,0.2265 -0.276043,0 -0.479168,-0.099 -0.609375,-0.2969 -0.125001,-0.1979 -0.187501,-0.427 -0.1875,-0.6875 -10e-7,-0.2708 0.07552,-0.5468 0.226562,-0.8281 0.151041,-0.2812 0.374999,-0.5442 0.671875,-0.789 0.296873,-0.2448 0.658852,-0.4427 1.085938,-0.5938 0.42708,-0.151 0.919267,-0.2265 1.476562,-0.2266 0.64062,10e-5 1.169266,0.096 1.585938,0.2891 0.421868,0.1875 0.752597,0.4167 0.992187,0.6875 0.234368,0.2656 0.395826,0.5443 0.484375,0.8359 0.08853,0.2917 0.132805,0.5417 0.132813,0.75 -8e-6,0.2605 -0.03647,0.5235 -0.109375,0.7891 -0.07292,0.2604 -0.192716,0.5026 -0.359375,0.7266 -0.182299,0.2448 -0.424486,0.4687 -0.726563,0.6718 -0.296881,0.198 -0.67188,0.3594 -1.125,0.4844 l 0,0.125 c 0.291661,0.026 0.601557,0.091 0.929688,0.1953 0.333327,0.1042 0.632805,0.2579 0.898437,0.461 0.276035,0.2135 0.502597,0.4896 0.679688,0.8281 0.177075,0.3333 0.265617,0.7578 0.265625,1.2734 -8e-6,1 -0.40105,1.8099 -1.203125,2.4297 -0.80209,0.625 -1.804693,0.9375 -3.007813,0.9375"
         id="path4174" />
    </g>
    <g
       id="text3025"
       style="font-size:16px;font-style:normal;font-variant:normal;font-weight:normal;font-stretch:normal;text-align:start;line-height:125%;letter-spacing:0px;word-spacing:0px;writing-mode:lr-tb;text-anchor:start;fill:#000000;fill-opacity:1;stroke:none;font-family:Georgia;-inkscape-font-specification:Georgia">
      <path
         d="m 114.36996,1042.7014 -1.58594,0 0,3.5547 -1.5,0 0,-3.5547 -5,0 0,-1.2031 5.47656,-6.6797 1.02344,0 0,6.8594 1.58594,0 0,1.0234 m -3.08594,-1.0234 0,-5.1172 -4.21875,5.1172 4.21875,0"
         id="path4171" />
    </g>
    <g
       id="text3029"
       style="font-size:16px;font-style:normal;font-variant:normal;font-weight:normal;font-stretch:normal;text-align:start;line-height:125%;letter-spacing:0px;word-spacing:0px;writing-mode:lr-tb;text-anchor:start;fill:#000000;fill-opacity:1;stroke:none;font-family:Georgia;-inkscape-font-specification:Georgia">
      <path
         d="m 131.68002,1040.7358 c 0.34374,0.2709 0.62759,0.6198 0.85156,1.0469 0.22916,0.4271 0.34374,0.961 0.34375,1.6016 -1e-5,1.1198 -0.38282,2.0442 -1.14844,2.7734 -0.76563,0.7292 -1.73698,1.0938 -2.91406,1.0938 -0.91146,0 -1.6823,-0.2162 -2.3125,-0.6485 -0.63021,-0.4323 -0.94531,-0.9349 -0.94531,-1.5078 0,-0.2656 0.0651,-0.4974 0.19531,-0.6953 0.13021,-0.1979 0.33073,-0.2969 0.60156,-0.2969 0.3125,0 0.54948,0.083 0.71094,0.25 0.16666,0.1615 0.25,0.3386 0.25,0.5313 0,0.1666 -0.0286,0.375 -0.0859,0.625 -0.0573,0.25 -0.10156,0.4349 -0.13281,0.5547 0.0417,0.036 0.10937,0.086 0.20312,0.1484 0.0937,0.062 0.20573,0.1224 0.33594,0.1797 0.13541,0.057 0.29948,0.1068 0.49219,0.1484 0.19791,0.047 0.42708,0.07 0.6875,0.07 0.33333,0 0.64843,-0.068 0.94531,-0.2031 0.29687,-0.1354 0.54687,-0.3359 0.75,-0.6015 0.22395,-0.2917 0.39062,-0.625 0.5,-1 0.11458,-0.3698 0.17187,-0.8412 0.17188,-1.4141 -1e-5,-0.7344 -0.20574,-1.3412 -0.61719,-1.8203 -0.40626,-0.4844 -0.94271,-0.7266 -1.60938,-0.7266 -0.41667,0 -0.80729,0.078 -1.17187,0.2344 -0.35938,0.1562 -0.6823,0.4167 -0.96875,0.7812 l -0.52344,-0.2031 0.66406,-5.6406 5.59375,0 0,1.3906 -4.96093,0 -0.40625,3.3125 c 0.23437,-0.1666 0.54166,-0.3307 0.92187,-0.4922 0.38541,-0.1666 0.80729,-0.25 1.26563,-0.25 0.3802,0 0.77343,0.06 1.17968,0.1797 0.41146,0.1146 0.78906,0.3073 1.13282,0.5781"
         id="path4168" />
    </g>
    <g
       id="text3033"
       style="font-size:16px;font-style:normal;font-variant:normal;font-weight:normal;font-stretch:normal;text-align:start;line-height:125%;letter-spacing:0px;word-spacing:0px;writing-mode:lr-tb;text-anchor:start;fill:#000000;fill-opacity:1;stroke:none;font-family:Georgia;-inkscape-font-specification:Georgia">
      <path
         d="m 154.20065,1041.8287 c -1e-5,0.5417 -0.099,1.0495 -0.29687,1.5235 -0.19272,0.4739 -0.45313,0.8776 -0.78125,1.2109 -0.38022,0.3802 -0.80209,0.6615 -1.26563,0.8438 -0.45834,0.1823 -0.9375,0.2734 -1.4375,0.2734 -0.57813,0 -1.10156,-0.1068 -1.57031,-0.3203 -0.46875,-0.2136 -0.86719,-0.5156 -1.19531,-0.9063 -0.33334,-0.3958 -0.59115,-0.8802 -0.77344,-1.4531 -0.18229,-0.5729 -0.27344,-1.2161 -0.27344,-1.9297 0,-1.8593 0.55209,-3.4271 1.65625,-4.7031 1.10937,-1.276 2.59375,-2.0417 4.45313,-2.2969 l 0.14062,0.7031 -0.70312,0.125 c -1.13022,0.3646 -2.00521,0.9323 -2.625,1.7032 -0.61459,0.7708 -1.01303,1.7057 -1.19531,2.8047 0.44791,-0.3907 0.89062,-0.6667 1.32812,-0.8282 0.4375,-0.1614 0.89843,-0.2421 1.38281,-0.2422 0.86979,1e-4 1.61198,0.3334 2.22657,1 0.61978,0.6667 0.92967,1.4974 0.92968,2.4922 m -1.69531,0.211 c -1e-5,-0.8438 -0.19532,-1.5209 -0.58594,-2.0313 -0.38542,-0.5104 -0.90365,-0.7656 -1.55468,-0.7656 -0.39063,0 -0.75522,0.073 -1.09375,0.2187 -0.33334,0.1459 -0.65626,0.3907 -0.96875,0.7344 -0.005,0.062 -0.013,0.2084 -0.0234,0.4375 -0.0104,0.224 -0.0156,0.4011 -0.0156,0.5313 0,1.2187 0.19792,2.1745 0.59375,2.8672 0.40104,0.6875 0.92708,1.0312 1.57813,1.0312 0.61978,0 1.11978,-0.2682 1.5,-0.8047 0.3802,-0.5416 0.5703,-1.2812 0.57031,-2.2187"
         id="path4165" />
    </g>
    <g
       id="text3037"
       style="font-size:16px;font-style:normal;font-variant:normal;font-weight:normal;font-stretch:normal;text-align:start;line-height:125%;letter-spacing:0px;word-spacing:0px;writing-mode:lr-tb;text-anchor:start;fill:#000000;fill-opacity:1;stroke:none;font-family:Georgia;-inkscape-font-specification:Georgia">
      <path
         d="m 167.73221,1045.037 c 0,0.2917 -0.10678,0.5417 -0.32031,0.75 -0.20834,0.2031 -0.45834,0.3047 -0.75,0.3047 -0.29167,0 -0.54428,-0.1016 -0.75782,-0.3047 -0.20833,-0.2083 -0.3125,-0.4583 -0.3125,-0.75 0,-0.2917 0.10417,-0.5417 0.3125,-0.75 0.21354,-0.2136 0.46615,-0.3203 0.75782,-0.3203 0.29166,0 0.54166,0.1067 0.75,0.3203 0.21353,0.2083 0.32031,0.4583 0.32031,0.75"
         id="path4158" />
      <path
         d="m 172.04471,1045.037 c 0,0.2917 -0.10678,0.5417 -0.32031,0.75 -0.20834,0.2031 -0.45834,0.3047 -0.75,0.3047 -0.29167,0 -0.54428,-0.1016 -0.75782,-0.3047 -0.20833,-0.2083 -0.3125,-0.4583 -0.3125,-0.75 0,-0.2917 0.10417,-0.5417 0.3125,-0.75 0.21354,-0.2136 0.46615,-0.3203 0.75782,-0.3203 0.29166,0 0.54166,0.1067 0.75,0.3203 0.21353,0.2083 0.32031,0.4583 0.32031,0.75"
         id="path4160" />
      <path
         d="m 176.35721,1045.037 c 0,0.2917 -0.10678,0.5417 -0.32031,0.75 -0.20834,0.2031 -0.45834,0.3047 -0.75,0.3047 -0.29167,0 -0.54428,-0.1016 -0.75782,-0.3047 -0.20833,-0.2083 -0.3125,-0.4583 -0.3125,-0.75 0,-0.2917 0.10417,-0.5417 0.3125,-0.75 0.21354,-0.2136 0.46615,-0.3203 0.75782,-0.3203 0.29166,0 0.54166,0.1067 0.75,0.3203 0.21353,0.2083 0.32031,0.4583 0.32031,0.75"
         id="path4162" />
    </g>
    <g
       id="text3049"
       style="font-size:16px;font-style:normal;font-variant:normal;font-weight:normal;font-stretch:normal;text-align:start;line-height:125%;letter-spacing:0px;word-spacing:0px;writing-mode:lr-tb;text-anchor:start;fill:#000000;fill-opacity:1;stroke:none;font-family:Georgia;-inkscape-font-specification:Georgia">
      <path
         d="m 20.485506,1036.6183 c 0.333325,0.401 0.580721,0.8724 0.742188,1.414 0.166657,0.5365 0.249991,1.099 0.25,1.6875 -9e-6,0.7084 -0.101572,1.3438 -0.304688,1.9063 -0.203133,0.5573 -0.481779,1.0208 -0.835937,1.3906 -0.364591,0.3802 -0.796883,0.6667 -1.296875,0.8594 -0.500007,0.1927 -1.057298,0.2891 -1.671875,0.2891 -0.67188,0 -1.270837,-0.112 -1.796875,-0.336 -0.526045,-0.2239 -0.953128,-0.5312 -1.28125,-0.9219 -0.343752,-0.4062 -0.601564,-0.8802 -0.773438,-1.4218 -0.166667,-0.5469 -0.250001,-1.1354 -0.25,-1.7657 -1e-6,-0.6197 0.08073,-1.1901 0.242188,-1.7109 0.166665,-0.5208 0.424477,-0.9922 0.773437,-1.4141 0.333331,-0.4062 0.763018,-0.7265 1.289063,-0.9609 0.526038,-0.2344 1.127599,-0.3515 1.804687,-0.3516 0.713536,10e-5 1.325515,0.1198 1.835938,0.3594 0.510409,0.2396 0.934888,0.5651 1.273437,0.9766 m -0.734375,3.1015 c -7e-6,-1.2395 -0.213549,-2.2005 -0.640625,-2.8828 -0.421881,-0.6822 -0.997401,-1.0234 -1.726562,-1.0234 -0.739588,0 -1.322921,0.3412 -1.75,1.0234 -0.427087,0.6823 -0.640628,1.6433 -0.640625,2.8828 -3e-6,1.1771 0.203122,2.1251 0.609375,2.8438 0.411454,0.7135 0.999995,1.0703 1.765625,1.0703 0.765619,0 1.35416,-0.3568 1.765625,-1.0703 0.411451,-0.7187 0.61718,-1.6667 0.617187,-2.8438"
         id="path4155" />
    </g>
    <g
       id="text3057"
       style="font-size:16px;font-style:normal;font-variant:normal;font-weight:normal;font-stretch:normal;text-align:start;line-height:125%;letter-spacing:0px;word-spacing:0px;writing-mode:lr-tb;text-anchor:start;fill:#000000;fill-opacity:1;stroke:none;font-family:Georgia;-inkscape-font-specification:Georgia">
      <path
         d="m 9.0249961,938.83893 -7.3203125,0 0,-1.0625 c 0.140624,-0.16146 0.3359363,-0.34115 0.5859375,-0.53906 0.2499983,-0.20313 0.546873,-0.42188 0.890625,-0.65625 0.2083308,-0.14063 0.4583305,-0.29427 0.75,-0.46094 0.2916633,-0.16667 0.6223921,-0.34896 0.9921875,-0.54688 0.4114538,-0.21874 0.7265577,-0.41145 0.9453125,-0.57812 0.2239531,-0.16666 0.4270779,-0.37239 0.609375,-0.61719 0.1197859,-0.16145 0.21614,-0.36197 0.2890625,-0.60156 0.072911,-0.24479 0.109369,-0.59114 0.109375,-1.03906 -6e-6,-0.65104 -0.174485,-1.1276 -0.5234375,-1.42969 -0.3489635,-0.30729 -0.7968797,-0.46093 -1.34375,-0.46094 -0.3385455,1e-5 -0.6588577,0.0677 -0.9609375,0.20313 -0.3020862,0.13021 -0.5286485,0.3125 -0.6796875,0.54687 0.036456,0.16667 0.080727,0.36459 0.1328125,0.59375 0.057289,0.22917 0.085935,0.45313 0.085937,0.67188 -2.7e-6,0.19792 -0.083336,0.375 -0.25,0.53125 -0.1614607,0.15104 -0.4036479,0.22656 -0.7265625,0.22656 -0.2604182,0 -0.4609388,-0.0885 -0.6015625,-0.26563 -0.140626,-0.18228 -0.2109385,-0.42447 -0.2109375,-0.72656 -10e-7,-0.28124 0.078124,-0.56249 0.234375,-0.84375 0.1562487,-0.28645 0.3802068,-0.54947 0.671875,-0.78906 0.2864562,-0.23437 0.6406225,-0.42447 1.0625,-0.57031 0.4218717,-0.14583 0.8776004,-0.21875 1.3671875,-0.21875 1.067703,0 1.9140563,0.23959 2.5390625,0.71875 0.6302009,0.47396 0.9453047,1.10938 0.9453125,1.90625 -7.8e-6,0.38021 -0.057299,0.72656 -0.171875,1.03906 -0.1093825,0.3125 -0.2890698,0.58854 -0.5390625,0.82812 -0.2760485,0.26563 -0.5989648,0.4948 -0.96875,0.6875 -0.3697974,0.18751 -0.934901,0.45053 -1.6953125,0.78907 -0.4531289,0.20312 -0.8750035,0.41666 -1.265625,0.64062 -0.3906277,0.21875 -0.7109399,0.43229 -0.9609375,0.64063 l 6.0078125,0 0,1.38281"
         id="path4152" />
    </g>
    <path
       d="m 102.36563,1030.2578 17.1726,0 0,20.7081 -17.1726,0 z"
       id="rect3061"
       style="fill:none;stroke:#000000;stroke-opacity:0.4600939" />
    <path
       d="m 44.786941,1023.1866 0,10.1015"
       id="path3831"
       style="fill:none;stroke:#000000;stroke-width:1px;stroke-linecap:butt;stroke-linejoin:miter;stroke-opacity:1" />
    <path
       d="m 68.020451,1022.6815 0,10.1015"
       id="path3831-8"
       style="fill:none;stroke:#000000;stroke-width:1px;stroke-linecap:butt;stroke-linejoin:miter;stroke-opacity:1" />
    <path
       d="m 88.728571,1023.1866 0,10.1015"
       id="path3831-0"
       style="fill:none;stroke:#000000;stroke-width:1px;stroke-linecap:butt;stroke-linejoin:miter;stroke-opacity:1" />
    <path
       d="m 111.45702,1024.1967 0,10.1016"
       id="path3831-4"
       style="fill:none;stroke:#000000;stroke-width:1px;stroke-linecap:butt;stroke-linejoin:miter;stroke-opacity:1" />
    <path
       d="m 128.62961,1024.1967 0,10.1016"
       id="path3831-7"
       style="fill:none;stroke:#000000;stroke-width:1px;stroke-linecap:butt;stroke-linejoin:miter;stroke-opacity:1" />
    <path
       d="m 150.85297,1024.1967 0,10.1016"
       id="path3831-2"
       style="fill:none;stroke:#000000;stroke-width:1px;stroke-linecap:butt;stroke-linejoin:miter;stroke-opacity:1" />
    <path
       d="m 17.479211,932.77802 167.247479,0"
       id="path3901"
       style="fill:#ff8080;stroke:#d52931;stroke-width:0.9327693;stroke-linecap:butt;stroke-linejoin:miter;stroke-miterlimit:4;stroke-opacity:1;stroke-dasharray:0.93276932, 0.93276932;stroke-dashoffset:0" />
    <path
       d="m 129.05197,932.27294 55.21875,0"
       id="path3905"
       style="fill:none;stroke:#000000;stroke-width:0.83456147px;stroke-linecap:butt;stroke-linejoin:miter;stroke-opacity:1" />
    <path
       d="M 20.953331,1029.953 129.54474,931.96825"
       id="path3909"
       style="fill:none;stroke:#000000;stroke-width:1px;stroke-linecap:butt;stroke-linejoin:miter;stroke-opacity:1" />
  </g>
</svg>
