<?xml version="1.0" encoding="UTF-8" standalone="no"?>
<!-- Created with Inkscape (http://www.inkscape.org/) -->

<svg
   xmlns:dc="http://purl.org/dc/elements/1.1/"
   xmlns:cc="http://creativecommons.org/ns#"
   xmlns:rdf="http://www.w3.org/1999/02/22-rdf-syntax-ns#"
   xmlns:svg="http://www.w3.org/2000/svg"
   xmlns="http://www.w3.org/2000/svg"
   xmlns:sodipodi="http://sodipodi.sourceforge.net/DTD/sodipodi-0.dtd"
   xmlns:inkscape="http://www.inkscape.org/namespaces/inkscape"
   width="744.09448819"
   height="1052.3622047"
   id="svg2"
   version="1.1"
   inkscape:version="0.48.4 r9939"
   sodipodi:docname="graph_shocker.pdf">
  <defs
     id="defs4" />
  <sodipodi:namedview
     id="base"
     pagecolor="#ffffff"
     bordercolor="#666666"
     borderopacity="1.0"
     inkscape:pageopacity="0.0"
     inkscape:pageshadow="2"
     inkscape:zoom="0.7"
     inkscape:cx="375"
     inkscape:cy="520"
     inkscape:document-units="px"
     inkscape:current-layer="layer1"
     showgrid="false"
     inkscape:window-width="1247"
     inkscape:window-height="757"
     inkscape:window-x="559"
     inkscape:window-y="255"
     inkscape:window-maximized="0" />
  <metadata
     id="metadata7">
    <rdf:RDF>
      <cc:Work
         rdf:about="">
        <dc:format>image/svg+xml</dc:format>
        <dc:type
           rdf:resource="http://purl.org/dc/dcmitype/StillImage" />
        <dc:title></dc:title>
      </cc:Work>
    </rdf:RDF>
  </metadata>
  <g
     inkscape:label="Layer 1"
     inkscape:groupmode="layer"
     id="layer1">
    <path
       sodipodi:type="arc"
       style="fill:#ffff00;stroke:#000000;stroke-opacity:1"
       id="path2987"
       sodipodi:cx="345"
       sodipodi:cy="478.07648"
       sodipodi:rx="146.42857"
       sodipodi:ry="140"
       d="m 491.42857,478.07648 a 146.42857,140 0 1 1 -292.85714,0 146.42857,140 0 1 1 292.85714,0 z" />
    <path
       style="fill:#00ff00;stroke:#000000;stroke-width:1px;stroke-linecap:butt;stroke-linejoin:miter;stroke-opacity:1"
       d="m 198.57143,508.07647 -75.71429,28.57143 2.85715,-125.71429 75.71428,41.42857 z"
       id="path2989"
       inkscape:connector-curvature="0" />
    <path
       style="fill:#ff0000;stroke:#000000;stroke-width:1px;stroke-linecap:butt;stroke-linejoin:miter;stroke-opacity:1"
       d="m 472.85714,403.79075 -8.57143,151.42858 168.57143,134.28571 12.85715,-465.71429 z"
       id="path2991"
       inkscape:connector-curvature="0" />
    <path
       style="fill:none;stroke:#000000;stroke-width:1px;stroke-linecap:butt;stroke-linejoin:miter;stroke-opacity:1"
       d="m 555.71429,313.79075 c -1.86778,-2.196 0.46694,-4.80814 0,-7.14285 -0.38506,-1.92526 -1.15091,-3.77064 -1.42858,-5.71429 -0.20203,-1.41421 0,-2.85714 0,-4.28571 0,-2.38096 0,-4.76191 0,-7.14286 0,-9.19092 0,-9.87773 0,-18.57143 0,-8.09524 0.95239,-0.47619 -1.42857,-2.85714 -0.33671,-0.33672 0,-0.95238 0,-1.42857 0,-1.42857 0,-2.85715 0,-4.28572 0,-1.42857 -0.63887,-3.00796 0,-4.28571 0.42592,-0.85184 2.00531,0.42592 2.85715,0 5.94537,-2.97269 -1.5272,0.0986 1.42857,-2.85714 0.33671,-0.33672 0.95238,0 1.42857,0 0.47619,0 1.09185,-0.33672 1.42857,0 0.2217,0.22169 -0.1853,3.72982 0,4.28571 -2.58693,5.9768 2.2548,1.65246 2.85714,2.85714 0.42592,0.85184 -0.42591,2.00531 0,2.85715 0.21296,0.42591 1.09186,-0.33672 1.42857,0 0.30543,0.30542 -0.26253,4.92667 0,5.71428 0.33672,1.01015 1.09186,1.84699 1.42858,2.85714 1.41753,4.25262 -3.38268,-2.93115 1.42857,4.28572 0.37355,0.56033 1.1274,0.82623 1.42857,1.42857 0.21296,0.42592 0,0.95238 0,1.42857 0,0.47619 0,0.95238 0,1.42857 0,2.85715 0,5.71429 0,8.57143 0,1.42857 -0.45176,2.93045 0,4.28572 0.15058,0.45175 1.09185,-0.33672 1.42857,0 0.33672,0.33671 0,0.95238 0,1.42857 0,0.47619 0,0.95238 0,1.42857"
       id="path2995"
       inkscape:connector-curvature="0" />
    <path
       style="fill:none;stroke:#000000;stroke-width:1px;stroke-linecap:butt;stroke-linejoin:miter;stroke-opacity:1"
       d="m 547.14286,625.21933 c -0.47619,1.90476 0.47619,6.19047 -1.42857,5.71428 -1.90477,-0.47619 2.30662,-7.47039 1.42857,-5.71428 -1.42857,2.85714 -2.85715,9.28571 -4.28572,12.85714 -0.39545,0.98863 -1.17032,1.82414 -1.42857,2.85714 -0.23098,0.92395 0.23099,1.9332 0,2.85714 -0.25825,1.03301 -1.03312,1.86851 -1.42857,2.85715 -0.55926,1.39814 -0.59328,3.03277 -1.42857,4.28571 -0.26414,0.39622 -1.27799,-0.45175 -1.42857,0 -0.45176,1.35526 0.23485,2.87658 0,4.28572 6.38346,10.00476 -2.44073,2.62004 -2.85715,4.28571 -0.46197,1.84789 0,3.80952 0,5.71429 0,0.47619 0.1155,0.96659 0,1.42857 -0.36522,1.46088 -1.13325,2.80911 -1.42857,4.28571 -0.18677,0.93389 0.42592,2.00531 0,2.85714 -0.21296,0.42592 -1.09185,-0.33671 -1.42857,0 -0.51316,0.51317 0.46211,4.79007 0,5.71429 -0.21296,0.42592 -0.95238,0 -1.42857,0 0,0.95238 0,1.90476 0,2.85714 0,3.22748 0.21296,-0.63887 -1.42857,4.28572 -0.1853,0.55589 0.22169,4.06402 0,4.28571 -0.33672,0.33672 -1.09186,-0.33672 -1.42857,0 -0.33672,0.33672 -0.33672,1.09185 0,1.42857 0.33671,0.33672 0.95238,0 1.42857,0 1.42857,0 2.85714,0 4.28571,0 0.52463,0 5.6568,0.0575 5.71429,0 0.67343,-0.67343 -0.42592,-2.00531 0,-2.85714 2.97268,-5.94537 -0.0986,1.52719 2.85714,-1.42857 1.11675,-1.11675 2.48522,-6.21304 2.85714,-7.14286 0.39546,-0.98864 1.09186,-1.84699 1.42858,-2.85714 0.15058,-0.45176 -0.15059,-0.97682 0,-1.42857 3.44924,-10.34774 -0.41187,2.25229 2.85714,-4.28572 0.28321,-0.56641 -0.29205,-3.99366 0,-4.28571 0.33672,-0.33672 1.09185,0.33672 1.42857,0 0.67344,-0.67344 -0.67343,-2.18371 0,-2.85714 0.33672,-0.33672 1.21561,0.42591 1.42857,0 0.42592,-0.85184 -0.18678,-1.92326 0,-2.85715 0.29532,-1.4766 1.13325,-2.80911 1.42857,-4.28571 0.18678,-0.93389 -0.23098,-1.9332 0,-2.85714 0.25825,-1.03301 1.09186,-1.847 1.42857,-2.85715 0.15059,-0.45175 -0.47619,-1.42857 0,-1.42857 0.4762,0 0,1.90476 0,1.42857 0,-0.95238 0,-1.90476 0,-2.85714 0,-0.47619 -0.15058,-0.97682 0,-1.42857 0.4762,-0.95238 0.95239,-1.90476 1.42858,-2.85714 0.47619,0 1.09185,0.33671 1.42857,0 0.33671,-0.33672 -0.33672,-1.09186 0,-1.42858 0.33671,-0.33671 1.09185,0.33672 1.42857,0 2.95576,-2.95576 -4.5168,0.11555 1.42857,-2.85714 0.85184,-0.42592 2.18371,0.67344 2.85714,0 0.67344,-0.67343 -0.67343,-2.18371 0,-2.85714 0.33672,-0.33672 1.09186,0.33672 1.42857,0 0.33672,-0.33672 0,-0.95238 0,-1.42857 0,-0.47619 0,-0.95238 0,-1.42857"
       id="path2997"
       inkscape:connector-curvature="0" />
    <path
       style="fill:none;stroke:#000000;stroke-width:1px;stroke-linecap:butt;stroke-linejoin:miter;stroke-opacity:1"
       d="m 600,669.50504 c -0.15142,0.37854 -2.99802,8.06846 -4.28571,10 -0.37356,0.56033 -1.12741,0.82623 -1.42858,1.42857 -0.67343,1.34687 -0.75513,2.93885 -1.42857,4.28572 -2.17825,4.35651 -1.13252,-2.61278 -2.85714,4.28571 -0.23099,0.92394 0.18678,1.92326 0,2.85714 -0.29532,1.47661 -0.95238,2.85715 -1.42857,4.28572 -0.47619,1.42857 -0.95238,2.85714 -1.42857,4.28571 -0.7744,2.32318 -1.45581,5.04085 -2.85715,7.14286 -0.37355,0.56033 -1.05501,0.86824 -1.42857,1.42857 -2.66091,3.99137 -1.42857,8.3367 -1.42857,12.85714 0,1.42857 0.63888,3.00796 0,4.28572 -0.21296,0.42591 -1.21561,-0.42592 -1.42857,0 -0.71429,1.42857 0.35714,2.85714 0,4.28571 -1.57916,6.31663 -1.42857,2.2805 -1.42857,5.71429 0,0.47619 0,0.95238 0,1.42857 0,0.47619 -0.47619,1.42857 0,1.42857 0.67343,0 0.82623,-1.1274 1.42857,-1.42857 1.34687,-0.67344 2.93884,-0.75514 4.28571,-1.42857 0.60234,-0.30117 0.82624,-1.12741 1.42858,-1.42857 0.42591,-0.21296 1.00265,0.21295 1.42857,0 0.60234,-0.30117 0.82623,-1.12741 1.42857,-1.42858 0.42592,-0.21295 1.09185,0.33672 1.42857,0 0.33672,-0.33671 -0.33672,-1.09185 0,-1.42857 0.33672,-0.33672 1.00265,0.21296 1.42857,0 1.53567,-0.76783 2.75005,-2.08931 4.28572,-2.85714 0.42591,-0.21296 1.09185,0.33672 1.42857,0 0.71428,-0.71429 -0.71429,-3.57143 0,-4.28571 0.33671,-0.33672 1.09185,0.33671 1.42857,0 0.33672,-0.33672 -0.0934,-0.96163 0,-1.42858 0.38505,-1.92525 1.04352,-3.78903 1.42857,-5.71428 0.37662,-1.8831 -0.49497,-7.08652 0,-8.57143 0.21296,-0.63888 1.26524,-0.77524 1.42857,-1.42857 0.26568,-1.06273 0,-11.56423 0,-12.85714 0,-1.42858 0,-2.85715 0,-4.28572 0,-0.47619 -0.33672,-1.09185 0,-1.42857 0.33672,-0.33672 0.95238,0 1.42857,0 0.47619,-0.47619 1.05502,-0.86824 1.42857,-1.42857 0.86999,-1.30498 1.21941,-3.46685 2.85715,-4.28572 0.42592,-0.21296 1.09185,0.33672 1.42857,0 0.33672,-0.33671 -0.33672,-1.09185 0,-1.42857 0.33672,-0.33672 1.09185,0.33672 1.42857,0 0.33672,-0.33672 -0.33672,-1.09185 0,-1.42857 0.33672,-0.33672 1.42857,-0.47619 1.42857,0 0,0.47619 -1.42857,0.47619 -1.42857,0 0,-0.67343 1.26524,-0.77524 1.42857,-1.42857 1.19048,-4.76191 -1.8254,-4.28571 1.42857,-4.28571"
       id="path2999"
       inkscape:connector-curvature="0" />
    <path
       style="fill:none;stroke:#000000;stroke-width:1px;stroke-linecap:butt;stroke-linejoin:miter;stroke-opacity:1"
       d="m 594.28571,273.79075 c -0.47619,-1.90476 -3.33333,-5.23809 -1.42857,-5.71428 1.90477,-0.47619 1.42857,7.67767 1.42857,5.71428 0,-2.4281 -1.02939,-4.74779 -1.42857,-7.14285 -0.0783,-0.46971 0.33672,-1.09186 0,-1.42857 -0.33671,-0.33672 -1.21561,0.42591 -1.42857,0 -0.87805,-1.75611 -0.55052,-3.95819 -1.42857,-5.71429 -0.60234,-1.20468 -2.04902,-1.77965 -2.85714,-2.85714 -0.63888,-0.85184 -0.83793,-1.97118 -1.42857,-2.85715 -0.27658,-0.41485 -2.80701,-2.6566 -2.85715,-2.85714 -0.0779,-0.31147 0.325,-6.49286 0,-7.14286 -0.30117,-0.60233 -1.1274,-0.82623 -1.42857,-1.42857 -0.44894,-0.89789 0.44895,-4.81639 0,-5.71428 -0.30117,-0.60234 -1.1274,-0.82624 -1.42857,-1.42857 -0.21717,-0.43434 0,-4.72783 0,-5.71429 0,-4.28571 0,-8.57143 0,-12.85714 0,-2.85715 0,-5.71429 0,-8.57143 0,-0.64337 -0.21738,-3.85095 0,-4.28572 0.30117,-0.60234 1.21561,-0.78969 1.42857,-1.42857 0.30117,-0.90351 -0.42592,-2.00531 0,-2.85714 0.21296,-0.42592 0.9666,0.11549 1.42857,0 1.46089,-0.36522 2.93885,-0.75514 4.28572,-1.42857 0.60234,-0.30117 0.82623,-1.1274 1.42857,-1.42857 0.42592,-0.21296 0.9666,0.11549 1.42857,0 1.46089,-0.36522 2.82483,-1.06335 4.28571,-1.42857 0.46198,-0.1155 1.00266,0.21295 1.42858,0 0.60233,-0.30117 0.82623,-1.12741 1.42857,-1.42858 0.22857,-0.11428 4.22857,-0.11428 4.28571,0 0.16797,0.33593 0,4.77583 0,5.71429 0,4.7619 0,9.52381 0,14.28571 0,0.95238 0,1.90477 0,2.85715 0,1.42857 -0.45175,2.93045 0,4.28571 0.15059,0.45175 1.09186,-0.33672 1.42857,0 0.67344,0.67344 -0.67343,2.18371 0,2.85714 0.33672,0.33672 1.09186,-0.33671 1.42857,0 0.33672,0.33672 0,0.95238 0,1.42858 0,1.42857 0,2.85714 0,4.28571 0,0.95238 -0.42591,2.00531 0,2.85714 0.21296,0.42592 0.95239,0 1.42858,0 0.47619,0.47619 1.21561,0.7897 1.42857,1.42857 0.81769,2.45309 -1.25163,2.94562 1.42857,4.28572 0.42592,0.21296 1.09185,-0.33672 1.42857,0 0.33672,0.33672 0,0.95238 0,1.42857 0,1.90476 -0.60234,3.90727 0,5.71429 0.15058,0.45175 1.09185,-0.33672 1.42857,0 0.2217,0.22169 -0.18529,3.72982 0,4.28571 0.33672,1.01015 1.09186,1.84699 1.42857,2.85714 0.30117,0.90351 0,1.90476 0,2.85715"
       id="path3001"
       inkscape:connector-curvature="0" />
  </g>
</svg>
